<?xml version="1.0" encoding="UTF-8" standalone="no"?>
<svg
   xmlns:dc="http://purl.org/dc/elements/1.1/"
   xmlns:cc="http://creativecommons.org/ns#"
   xmlns:rdf="http://www.w3.org/1999/02/22-rdf-syntax-ns#"
   xmlns:svg="http://www.w3.org/2000/svg"
   xmlns="http://www.w3.org/2000/svg"
   viewBox="0 0 622.49335 234.42667"
   height="234.42667"
   width="622.49335"
   xml:space="preserve"
   id="svg2"
   version="1.1"><metadata
     id="metadata8"><rdf:RDF><cc:Work
         rdf:about=""><dc:format>image/svg+xml</dc:format><dc:type
           rdf:resource="http://purl.org/dc/dcmitype/StillImage" /><dc:title></dc:title></cc:Work></rdf:RDF></metadata><defs
     id="defs6" /><g
     transform="matrix(1.3333333,0,0,-1.3333333,0,234.42667)"
     id="g10"><g
       transform="scale(0.1)"
       id="g12"><path
         id="path14"
         style="fill:#ffffff;fill-opacity:1;fill-rule:nonzero;stroke:none"
         d="M 4069.29,1192.19 H 571.766 V 569.434 H 4087.61 v 622.756 h -18.32" /><path
         id="path16"
         style="fill:#2056ae;fill-opacity:1;fill-rule:nonzero;stroke:none"
         d="M 4069.29,587.773 V 1173.85 H 590.105 V 587.773 H 4069.29" /><path
         id="path18"
         style="fill:#fee702;fill-opacity:1;fill-rule:nonzero;stroke:none"
         d="M 3422.76,702.578 H 590.262 V 665.879 H 3409.29 l 13.47,36.699" /><path
         id="path20"
         style="fill:#ffffff;fill-opacity:1;fill-rule:nonzero;stroke:none"
         d="m 1638.15,1037.58 -92.54,-140.51 c 0,0 5.89,73.516 7.35,91.211 1.09,13.499 -0.55,49.299 -33.38,49.299 -31.83,0 -146.88,0 -146.88,0 l -96.32,-261.623 h 114.84 l 69.79,189.219 -14.71,-189.219 h 102.05 l 125.2,185.918 -68.33,-185.918 h 115.61 l 96.31,261.623 h -178.99" /><path
         id="path22"
         style="fill:#ffffff;fill-opacity:1;fill-rule:nonzero;stroke:none"
         d="m 2263.78,780.801 c -5.6,-0.957 -49.49,-9.395 -95.6,-10.664 -82.25,-2.266 -153.93,30.664 -154.59,90.019 -1.12,102.891 102.92,159.274 179.66,175.004 34.38,7.03 100.64,14.76 166.6,-1.51 l -38.32,-91.931 c -10.98,25.019 -39.31,25.508 -50.89,25.742 -28.01,0.586 -51.18,-6.797 -68.26,-14.629 -38.78,-17.754 -72.57,-74.746 -17.7,-96.68 30.43,-12.187 69.2,-2.48 109.59,3.926 l -30.49,-79.277" /><path
         id="path24"
         style="fill:#ffffff;fill-opacity:1;fill-rule:nonzero;stroke:none"
         d="m 3442.38,775.957 h -126.77 l 96.25,261.623 h 126.8 l -96.28,-261.623" /><path
         id="path26"
         style="fill:#ffffff;fill-opacity:1;fill-rule:nonzero;stroke:none"
         d="M 1920.59,775.957 H 1793.8 l 96.38,261.623 h 126.68 l -96.27,-261.623" /><path
         id="path28"
         style="fill:#ffffff;fill-opacity:1;fill-rule:nonzero;stroke:none"
         d="m 2604.36,1037.58 -34.92,-94.24 h -63.75 l 34.69,94.24 h -120.9 l -96.05,-261.662 h 120.46 l 32.86,88.652 h 63.86 l -32.85,-88.652 h 120.67 l 96.48,261.662 h -120.55" /><path
         id="path30"
         style="fill:#ffffff;fill-opacity:1;fill-rule:nonzero;stroke:none"
         d="m 3184.91,862.852 64.22,174.728 h -123.2 l -96.45,-261.662 h 247.58 l 31.99,86.934 h -124.14" /><path
         id="path32"
         style="fill:#ffffff;fill-opacity:1;fill-rule:nonzero;stroke:none"
         d="m 3851.13,1037.58 -66.1,-179.553 c 0.9,18.067 4.53,89.473 6.72,130.625 0.93,16.938 -2.74,29.868 -10.86,38.458 -9.84,10.35 -22.85,10.47 -23.01,10.47 H 3610.61 L 3514.4,775.918 h 106.92 l 68.24,185.293 -8.09,-185.293 h 179.34 l 96.29,261.662 h -105.97" /><path
         id="path34"
         style="fill:#ffffff;fill-opacity:1;fill-rule:nonzero;stroke:none"
         d="m 2845.73,846.543 10.82,29.062 h 137.66 l 23.63,64.415 h -137.66 l 10.51,29.023 h 144.53 l 25.43,68.537 h -264.22 l -96.32,-261.662 h 267.23 l 25.89,70.625 h -147.5" /><path
         id="path36"
         style="fill:#231f20;fill-opacity:1;fill-rule:nonzero;stroke:none"
         d="m 1287.08,918.457 c 7.24,10.938 -0.96,33.828 -16.9,52.754 -14.92,17.676 -34.49,22.48 -35.78,31.229 18.99,39.16 -1.5,73.07 -31.07,85.86 1.11,18.56 -6.23,37.09 -21.62,50.9 7.07,14.94 14.82,59.08 -17.58,86.72 12.85,54.63 -42.34,85.39 -72.17,88.14 -14.43,10.2 -35.29,16.98 -60.58,19.69 18.43,27.64 13.71,65.33 -8.75,85.57 1.28,30.15 -19.22,58.51 -50.103,69.18 -10.175,25.23 -66.367,21.17 -72.89,-2.15 -32.418,-11.68 -51.914,-48.09 -48.551,-80.16 -19.906,-21.19 -19.008,-57.93 -0.664,-81.35 -17.231,0.41 -41.274,-4.23 -58.418,-11.11 -0.024,0 -0.024,0 -0.024,0 -0.332,0.1 -0.781,0.25 -0.761,0.23 -14.024,6.84 -29.473,9.36 -44.824,7.45 -4.098,2.57 -14.059,7.01 -20.586,8.69 -5.938,8.83 -13.629,15.97 -22.95,21.29 -3.632,15.21 -16.757,27.48 -28.574,33.38 1.192,11.34 -3.301,25.58 -7.051,32.14 -6.851,11.94 -5.175,29.73 -3.164,32.27 7.832,9.75 1.02,18.67 -2.476,22.13 -17.832,17.5 -35.473,8.26 -40.649,0.15 -16.972,30.26 -36.465,38.34 -48.062,34.36 -15.141,11.88 -39.36,4.53 -38.949,-9.98 -9.922,-6.93 -16.739,-10.23 -1.192,-38.54 -3.105,-59.06 3.399,-76.64 42.324,-108.41 -12.089,-11.59 -18.574,-37.87 -6.836,-56.82 -3.125,-28.34 11.973,-55.51 30.918,-69.92 5.372,-40.72 44.864,-64.83 70.782,-70.22 17.343,-25.29 42.851,-37.91 67.422,-40.35 1.425,-11.35 5.785,-22.36 12.871,-32.81 -6.407,-23.26 -5.758,-44.88 1.855,-64.39 -18.183,-19.79 -24.629,-48.735 -15.976,-79.282 -21.266,-25.274 -28.551,-65.196 -13.575,-98.457 -0.117,-0.157 -6.812,-9.766 -8.906,-18.086 -15.074,-7.325 -28.941,-23.75 -36.641,-43.477 -6.25,-16.269 -3.828,-37.851 -0.156,-54.961 -23.105,-19.472 -36.719,-68.711 5.063,-108.613 -9.106,-28.242 -28.559,-53.086 -51.758,-82.637 -16.391,-20.957 -19.301,-32.265 -0.258,-57.051 14.824,-19.375 41.328,-34.238 63.106,-35.097 42.953,-1.719 72.461,7.676 77.128,38.222 2.778,18.145 -9.019,55.137 -10.039,64.082 -1.011,8.965 2.383,23.125 11.02,45.645 38.512,8.887 59.004,37.5 61.344,65.43 29.336,16.328 49.535,49.55 40.332,86.484 5.234,6.699 6.957,10.684 10.058,20.547 0,-16.231 10.981,-27.109 16.172,-36.602 -17.012,-41.23 5.395,-78.808 30.352,-94.941 -43.043,-61.016 3.437,-90.586 15.859,-103.438 14.61,-15.117 16.699,-40.82 40.996,-49.511 20.981,-7.539 88.611,-0.352 101.761,28.242 3.34,7.324 6.43,15.508 2.79,20.976 0.53,20.45 -12.66,35.391 -35.72,48.555 -25.86,14.805 -25.33,10.684 -37.76,49.903 40.22,19.453 47.35,65.39 45.34,83.535 28.16,34.922 26.42,64.804 10.98,85.644 4.97,14.414 4.23,27.715 0.62,39.317 23.09,22.07 34.38,53.808 24.92,87.5 14.05,20.742 19.18,44.043 13.4,69.433 12.19,-18.418 31.09,-25.937 52.65,-25.273 0.14,-0.469 1.9,-6.524 2.97,-9.278 -6.26,-11.718 -3.42,-25.781 13.05,-37.871 1.46,-5.449 4.45,-9.746 8.73,-12.715 -0.25,-5.605 13.75,-28.652 30.61,-16.308 0.44,0.312 18.67,11.953 19.8,12.656 14.2,-12.89 50.23,-2.617 46.74,21.504" /><path
         id="path38"
         style="fill:#ffffff;fill-opacity:1;fill-rule:nonzero;stroke:none"
         d="m 1123.07,1034.16 c 44.83,3.87 85.55,53.44 46,91.37 -5.6,-7.87 -18.3,-17.78 -26.23,-20.84 -2.91,-19.1 -14.32,-35.59 -22.58,-44.73 1.58,-6.8 2.81,-24.65 2.81,-25.8" /><path
         id="path40"
         style="fill:#ffffff;fill-opacity:1;fill-rule:nonzero;stroke:none"
         d="m 1195.79,1071.19 c -10.92,-28.85 -40.18,-44.69 -73.38,-48.83 -4.94,-23.708 25.57,-58.962 71.54,-38.337 32.64,14.649 45.24,67.817 1.84,87.167" /><path
         id="path42"
         style="fill:#ffffff;fill-opacity:1;fill-rule:nonzero;stroke:none"
         d="m 1182.64,946.543 c -4.02,-4.355 -2.87,-13.848 2.76,-17.422 0.17,0.645 2.78,10.703 5.41,14.629 -2.97,3.73 -6.64,4.453 -8.17,2.793" /><path
         id="path44"
         style="fill:#ffffff;fill-opacity:1;fill-rule:nonzero;stroke:none"
         d="m 1211.86,925.293 c -2.97,5.273 -1.32,11.309 -9.72,14.355 -8.67,3.106 -9.3,-24.746 -2.52,-23.73 2.87,3.398 6.81,6.445 12.24,9.375" /><path
         id="path46"
         style="fill:#ffffff;fill-opacity:1;fill-rule:nonzero;stroke:none"
         d="m 1223.55,921.367 c -11.65,-3.515 -20.98,-12.422 -16.47,-19.883 2.13,-3.437 3.51,-3.32 10.74,1.153 4.61,2.812 11.64,8.515 13.03,9.511 -2.34,5.157 -7.3,9.219 -7.3,9.219" /><path
         id="path48"
         style="fill:#ffffff;fill-opacity:1;fill-rule:nonzero;stroke:none"
         d="m 1234.95,975.352 c -4.02,2.285 -10.82,8.105 -14.24,13.32 -8.92,-9.902 -29.14,-19.16 -36.83,-21.27 0.27,-0.937 2.87,-10 4.14,-11.797 3.55,-1.093 7.59,-3.964 10.12,-7.285 4.88,1.446 17.12,-0.527 20.07,-13.554 5.38,-3.614 15.78,-7.5 19.06,-11.797 14.28,-18.555 25,-15.254 28.19,-12.793 12.52,9.765 -4.61,18.262 -14.2,30.039 -4.22,5.215 -18.91,25.801 -18.3,30.078 0.29,1.934 3.55,0.645 5.8,-3.105 1.31,-2.247 20.92,-24.747 30.67,-33.008 -8.58,29.472 -34.48,41.172 -34.48,41.172" /><path
         id="path50"
         style="fill:#ffffff;fill-opacity:1;fill-rule:nonzero;stroke:none"
         d="m 955.809,1016.56 c 167.951,1.62 187.701,101.64 166.081,140.1 -51.49,-53.69 -223.367,-83.69 -308.074,-16.95 -16.48,-16.96 -36.66,-22.89 -55.175,-25.06 5.785,-50.37 94.867,-99.08 197.168,-98.09" /><path
         id="path52"
         style="fill:#ffffff;fill-opacity:1;fill-rule:nonzero;stroke:none"
         d="m 842.219,1226.09 c 3.004,-32.11 -11.039,-63.28 -17.699,-74.25 15.16,-11.98 47.597,-34.83 120.492,-36 109.328,-1.72 225.668,51.64 160.368,140.55 -29.26,-35.78 -167.419,-67.84 -263.161,-30.3" /><path
         id="path54"
         style="fill:#ffffff;fill-opacity:1;fill-rule:nonzero;stroke:none"
         d="m 697.195,1238.4 c 25.625,24.65 27.856,56.07 15.254,77.93 -2.754,4.78 -6.035,9.31 -11.035,13.46 -6.601,-46.98 -71.402,-82.29 -113.16,-51.74 14.488,-65.14 81.109,-66.45 108.941,-39.65" /><path
         id="path56"
         style="fill:#ffffff;fill-opacity:1;fill-rule:nonzero;stroke:none"
         d="m 750.496,1194.14 c 38.383,42.97 -0.484,110.14 -18.75,113.73 13.344,-65.62 -52.574,-116.97 -110.605,-91.78 13.988,-39.82 82.738,-74.1 129.355,-21.95" /><path
         id="path58"
         style="fill:#ffffff;fill-opacity:1;fill-rule:nonzero;stroke:none"
         d="m 696.648,1153.07 c 34.336,-35.92 123.946,-33.4 129.653,49.9 3.828,55.84 -20.805,87.34 -61.196,98.01 47.286,-87.13 -7.656,-147.05 -68.457,-147.91" /><path
         id="path60"
         style="fill:#ffffff;fill-opacity:1;fill-rule:nonzero;stroke:none"
         d="m 768.387,1064.92 c -15.836,-95.643 111.332,-126.639 187.422,-123.943 127.741,4.531 156.081,66.933 150.211,103.513 -81.44,-63.299 -255.25,-56.326 -337.633,20.43" /><path
         id="path62"
         style="fill:#ffffff;fill-opacity:1;fill-rule:nonzero;stroke:none"
         d="m 833.719,863.516 c 67.543,-15.508 123.183,17.343 122.289,62.832 -33.305,-0.489 -140.371,1.289 -191.211,73.086 -35.473,-49.121 5.601,-118.731 68.922,-135.918" /><path
         id="path64"
         style="fill:#ffffff;fill-opacity:1;fill-rule:nonzero;stroke:none"
         d="M 926.805,861.094 C 864.773,829.18 780.281,852.246 747.59,918.066 702.629,845 779.148,780.215 834.598,783.027 c 69.043,3.536 89.203,47.364 92.207,78.067" /><path
         id="path66"
         style="fill:#ffffff;fill-opacity:1;fill-rule:nonzero;stroke:none"
         d="m 736.531,821.973 c -22.051,-38.77 4.809,-80.821 33.266,-91.993 60.039,-23.457 100.426,16.465 97.691,45.254 -48.789,-11.816 -98.125,3.536 -130.957,46.739" /><path
         id="path68"
         style="fill:#ffffff;fill-opacity:1;fill-rule:nonzero;stroke:none"
         d="m 687.762,704.199 c -27.457,-24.219 -8.125,-85 34.258,-99.726 60.41,-21.035 86.132,19.355 90.683,41.855 -16.094,-3.887 -86.402,-18.223 -124.941,57.871" /><path
         id="path70"
         style="fill:#ffffff;fill-opacity:1;fill-rule:nonzero;stroke:none"
         d="m 766.102,719.297 c -31.598,16.328 -50.664,40.547 -53.164,75.058 -45.469,-45.585 -7.657,-118.359 34.613,-133.046 84.961,-29.473 115.039,42.129 107.984,64.355 -33.555,-23.73 -73.887,-14.375 -89.433,-6.367" /><path
         id="path72"
         style="fill:#ffffff;fill-opacity:1;fill-rule:nonzero;stroke:none"
         d="m 1070.61,508.73 2.37,-1.679 c -6.35,-14.219 -57.6,-25.879 -78.421,-16.211 -24.629,11.445 -20.743,25.332 -36.383,40.137 -34.828,32.929 -30.024,46.679 -25.063,65.058 2.27,8.34 6.739,13.789 13.774,23.164 23.164,-9.375 34.312,-7.5 55.173,-2.09 0.29,-1.718 1.54,-7.05 1.97,-9.023 -15.8,-1.66 -28.807,-4.922 -28.807,-4.922 l 3.988,-11.992 c 0,0 13.34,3.437 28.159,4.57 0,0 3.2,-8.965 4.45,-11.523 -14,-0.957 -26.793,-5.137 -26.793,-5.137 l 3.887,-11.426 c 0,0 18.266,5.801 32.656,4.473 13.95,-13.496 71.86,-27.988 43.81,-56.875 -11.19,-11.504 -38.67,-15.508 -58.71,-14.883 l -1.25,-3.008 c 4.1,-5.625 44.08,-7.558 65.19,11.367" /><path
         id="path74"
         style="fill:#ffffff;fill-opacity:1;fill-rule:nonzero;stroke:none"
         d="m 1042.57,691.582 c -13.28,-10.586 -34.24,-19.336 -59.847,-18.535 -28.946,0.898 -49.918,12.695 -67.871,32.851 -10.68,-52.597 23.109,-78.144 59.921,-79.96 67.657,-3.301 69.047,58.125 67.797,65.644" /><path
         id="path76"
         style="fill:#ffffff;fill-opacity:1;fill-rule:nonzero;stroke:none"
         d="m 981.766,685.488 c 71.464,-0.351 93.944,59.844 80.074,85.938 -40.79,-50.117 -135.973,-40.078 -153.688,22.051 -25.972,-43.184 15.508,-107.696 73.614,-107.989" /><path
         id="path78"
         style="fill:#ffffff;fill-opacity:1;fill-rule:nonzero;stroke:none"
         d="m 991.316,751.543 c 35.664,-0.273 75.074,25.41 65.704,68.613 -40.35,-26.308 -92.207,-23.75 -126.504,2.324 -2.95,-5.937 -8.258,-13.945 -12.047,-18.671 4.508,-32.305 39.082,-51.993 72.847,-52.266" /><path
         id="path80"
         style="fill:#ffffff;fill-opacity:1;fill-rule:nonzero;stroke:none"
         d="m 947.098,874.883 c -1.368,-1.211 -2.754,-2.403 -4.215,-3.516 0.191,-11.289 -3.246,-27.558 -6.723,-38.027 49.356,-42.481 153.4,-16.797 146.56,69.375 -35.64,-34.902 -93.181,-43.242 -135.622,-27.832" /><path
         id="path82"
         style="fill:#ffffff;fill-opacity:1;fill-rule:nonzero;stroke:none"
         d="m 971.316,926.797 c 0.395,-15.762 -5.878,-31.094 -14.57,-43.281 64.434,-18.653 143.904,14.394 138.774,90.117 -19.5,-19.649 -59.63,-43.242 -124.204,-46.836" /><path
         id="path84"
         style="fill:#ffffff;fill-opacity:1;fill-rule:nonzero;stroke:none"
         d="m 650.809,1284.49 c 47.187,21.31 43.871,71.64 15.453,83.22 -6.211,-5.87 -5.453,-21.79 -5.141,-25.19 0.766,-7.97 -11.324,-12.29 -13.105,-10.04 -4.2,5.27 5.898,10.63 1.664,22.6 -4.043,11.46 8.336,17.24 8.336,34.33 0,9.89 -8.438,26.57 -9.586,29.73 -3.871,10.25 -3.617,30.2 1.953,39.92 -4.184,3.87 -10.863,9.57 -17.153,-0.15 -8.457,-12.99 -5.425,-29.22 0.547,-41.8 -0.816,-0.39 -8.496,-0.14 -12.847,-13.95 -0.082,-0.21 -3.52,-4.59 -3.52,-4.59 l -2.832,-0.09 c -2.027,9.92 1.367,16.11 3.969,21.95 -0.785,2.28 -3.75,12.17 -4.375,27.64 -8.012,20.25 -23.149,40.31 -33.559,41.5 8.907,-12.91 25.078,-43.59 26.778,-47.79 3.554,-8.64 -4.098,-10.12 -4.098,-10.12 -11.898,25.37 -25.371,47.54 -35.609,57.73 -6.875,6.9 -14.508,9.13 -17.032,4.73 3.086,-1.03 6.875,-4.73 9.809,-8.3 10.894,-13.42 33.18,-59.16 33.18,-59.16 0,0 -1.754,-2.27 -3.883,-1.95 -3.598,0.58 -8.188,7.2 -13.598,19.65 -5.855,11.32 -16.773,27.53 -22.676,34.29 -4.921,5.61 -9.16,3.73 -12.222,1.27 3.164,-5.62 6.558,-12.19 8.101,-17.38 8.106,2.15 18.52,-6.68 19.692,-14.59 1.168,-7.93 3.941,-29.59 8.961,-37.03 -1.856,-1 -6.621,-4.49 -6.621,-4.49 -5.465,6.77 -9.336,31.32 -10.196,40.17 -0.215,2.17 -2.871,6.7 -8.183,8.11 -2.594,0.7 -3.106,-0.98 -3.18,-2.83 -2.27,-49.4 0.719,-61.86 44.566,-96.12 2.871,-2.22 7.793,-8.49 11.02,-15.08 3.219,-6.54 8.766,-14.45 19.297,-13.12 l 4.176,-4.26 c -9.508,-7.62 -23.512,-2.95 -26.836,1.35 -2.633,3.44 -9.879,14.12 -9.879,14.12 -30.547,-32.34 10.308,-76.17 58.629,-54.28" /><path
         id="path86"
         style="fill:#ffffff;fill-opacity:1;fill-rule:nonzero;stroke:none"
         d="m 701.379,602.051 c -18.676,-40.196 -35.332,-56.426 -56.469,-86.055 -12.519,-17.637 -7.89,-26.172 0.684,-37.519 17.129,-20.84 48.047,-31.231 70.859,-24.668 l -0.137,3.007 c -27.363,-2.695 -51.48,7.539 -64.019,26.133 l 2.105,1.992 c 32.012,-25.195 74.161,-18.222 90.332,-9.961 4.454,2.266 7.563,8.399 6.938,13.926 -1.508,13.242 -8.988,35.567 -10.453,48.145 -1.192,10.293 2.519,28.183 10.176,49.316 -12.926,-0.293 -42.247,3.184 -50.016,15.684" /><path
         id="path88"
         style="fill:#ffffff;fill-opacity:1;fill-rule:nonzero;stroke:none"
         d="m 1111.77,1272.25 c 22.91,-15.41 27.03,-46.7 27.73,-59.67 22.44,44.08 -11.25,70.39 -29.06,75.9 3.04,-5.9 2.79,-14.73 1.33,-16.23" /><path
         id="path90"
         style="fill:#ffffff;fill-opacity:1;fill-rule:nonzero;stroke:none"
         d="m 1146.51,1127.25 c 42.79,25.58 14.85,78.24 7.92,82.61 -1.71,-5.43 -7.23,-19.29 -22.9,-37.73 9.26,-11.15 14.52,-26.99 14.98,-44.88" /><path
         id="path92"
         style="fill:#ffffff;fill-opacity:1;fill-rule:nonzero;stroke:none"
         d="m 838.777,1243.26 c 31.036,-14 65.434,-19.37 99.375,-19.45 91.078,-0.24 154.238,26.05 159.148,53.28 4.06,22.71 -37.64,36.62 -83.01,39.2 -6.63,-7.19 -15.688,-9.53 -17.876,-9.71 -3.32,-0.23 -5.445,2.27 -1.797,4.18 6.833,3.56 13.573,9.45 6.213,22.09 4.85,0.78 21.47,6.84 22.83,35.45 1.1,22.75 -11.07,36.84 -21.21,43.38 0,0 -3.966,4.3 1.02,4.94 2.54,27.5 -16.118,50.86 -50.786,57.97 l 0.238,2.91 c 1.363,0.12 2.129,1.54 1.851,2.89 -1.187,6.84 -26.304,9.65 -36.226,0.45 -2.133,-1.97 4.922,-4.02 6.875,-4.1 2.555,-0.1 4.336,-3.48 0.719,-3.42 -19.84,0.35 -56.754,-17.17 -55.332,-65.08 1.23,0.02 11.527,3.07 15.664,1.9 2.793,-0.8 1.836,-4.2 -0.45,-4.38 -32.753,-2.52 -46.367,-59.94 -1.054,-80.33 0,0 2.328,-1.31 -0.606,-3.16 -5.371,-3.42 -9.492,-10.32 -1.347,-14.97 2.929,-1.67 5.199,-3.8 3.828,-6.54 -1.367,-2.67 -5.914,-2.52 -10.391,-0.29 -22.5,11.25 -48.887,5.29 -69.375,-1.31 15.156,-13.01 26.27,-34.08 31.699,-55.9" /><path
         id="path94"
         style="fill:#231f20;fill-opacity:1;fill-rule:nonzero;stroke:none"
         d="m 608.699,1391.29 c -0.957,-0.98 -7.73,3.51 -11.734,6.35 -6.391,2.97 -13.266,1.83 -13.496,3.82 -0.176,1.27 5.679,2.78 11.074,2.78 3.824,-0.2 7.555,-3.13 11.426,-2.83 1.265,-2.64 4.058,-8.75 2.73,-10.12" /><path
         id="path96"
         style="fill:#231f20;fill-opacity:1;fill-rule:nonzero;stroke:none"
         d="m 726.008,536.973 c -11.742,3.476 -26.703,5.293 -36.328,5.566 l 0.347,12.031 c 10.45,-0.293 26.719,-2.285 39.493,-6.113 l -3.512,-11.484" /><path
         id="path98"
         style="fill:#231f20;fill-opacity:1;fill-rule:nonzero;stroke:none"
         d="m 732.781,560.957 c -16.25,4.844 -19.375,5.371 -37.226,6.113 l 0.508,12.012 c 18.906,-0.801 23.046,-1.484 40.316,-6.641 l -3.598,-11.484" /><path
         id="path100"
         style="fill:#231f20;fill-opacity:1;fill-rule:nonzero;stroke:none"
         d="m 982.512,1367.36 c -1.039,-0.21 -2.875,-1.09 -4.004,-2.3 -31.621,5.68 -41.528,-2.89 -58.481,-2.44 0.215,2.15 -0.507,5.09 -3.281,4.76 -1.016,-0.09 -2.32,-2.38 -2.851,-3.12 -4.43,-6.58 -6.133,-10.24 -4.43,-11.74 1.851,-1.66 4.082,1 6.465,3.65 2.769,0.33 9.234,0.12 15.332,-4 5.293,-3.54 16.129,-17.23 27.476,-12.4 7.895,3.65 15.434,17.2 21.192,17.22 2.832,0.02 6.269,-0.41 6.875,-0.08 1.289,0.73 -1.309,11.2 -4.293,10.45 z m -24.477,-21.29 c -9.605,-4.92 -15.445,7.6 -24.859,11.74 8.668,2.23 26.09,3.95 39.429,1.53 -3.14,-2.48 -11.851,-11.86 -14.57,-13.27" /><path
         id="path102"
         style="fill:#231f20;fill-opacity:1;fill-rule:nonzero;stroke:none"
         d="m 971.711,1447.01 c -11.195,-1.27 -18.93,-15.78 -17.641,-33.08 0.766,-10.65 4.883,-20.12 11.02,-25.38 3.433,-2.92 7.359,-4.31 11.265,-3.96 11.211,0.94 18.989,15.55 17.739,33.2 -0.805,10.84 -4.946,20.37 -11.117,25.51 -3.473,2.87 -7.383,4.16 -11.266,3.71" /><path
         id="path104"
         style="fill:#ffffff;fill-opacity:1;fill-rule:nonzero;stroke:none"
         d="m 984.344,1398.03 c -0.039,-0.16 0,-0.28 0.043,-0.3 0.039,0 0.093,0 0.172,0.08 2.738,4.94 4.218,11.99 3.671,19.55 -0.664,8.93 -4.019,16.96 -8.843,20.96 -2.289,1.86 -4.629,2.7 -7.035,2.4 -7.696,-0.84 -13.418,-12.91 -12.461,-26.33 0.121,-1.21 0.254,-2.42 0.453,-3.59 0.078,-0.19 0.133,-0.27 0.23,-0.27 0.117,0 0.196,0.15 0.254,0.45 0.844,9.12 5.606,16.27 11.641,16.6 6.894,0.43 12.812,-8.24 13.207,-19.38 0.152,-3.67 -0.371,-7.16 -1.332,-10.17" /><path
         id="path106"
         style="fill:#231f20;fill-opacity:1;fill-rule:nonzero;stroke:none"
         d="m 921.766,1445.86 c -11.817,-1.07 -20.586,-15.72 -19.961,-33.32 0.39,-10.63 4.218,-20.24 10.312,-25.76 3.613,-3.28 7.793,-4.87 12.11,-4.57 11.875,0.78 20.683,15.49 20.078,33.43 -0.391,10.84 -4.254,20.53 -10.391,25.92 -3.633,3.21 -7.793,4.71 -12.148,4.3" /><path
         id="path108"
         style="fill:#ffffff;fill-opacity:1;fill-rule:nonzero;stroke:none"
         d="m 935.652,1400.33 c 0.039,-0.13 0.063,-0.19 0.102,-0.19 0.035,-0.02 0.133,0.04 0.215,0.17 1.676,4.36 2.594,9.63 2.398,15.14 -0.293,8.89 -3.437,17.03 -8.262,21.25 -1.675,1.46 -4.375,3.18 -7.792,2.87 -8.434,-0.76 -15.118,-13.03 -14.59,-26.78 0.215,-6.23 1.972,-11.34 4.043,-15.15 0.16,-0.24 0.332,-0.34 0.414,-0.28 0.078,0.02 0.133,0.14 0.133,0.28 -0.719,2.28 -1.172,4.8 -1.29,7.44 -0.488,10.9 4.668,19.94 11.543,20.17 6.86,0.28 12.832,-8.43 13.321,-19.49 0.097,-1.87 0,-3.71 -0.235,-5.43" /><path
         id="path110"
         style="fill:#1f54a9;fill-opacity:1;fill-rule:nonzero;stroke:none"
         d="m 1220.75,531.535 h 22.11 l 2.32,-98.293 h -19.97 l 0.2,22.531 h -42.36 l -16.31,-22.531 h -22.11 z m -26.36,-60.273 h 30.8 l 0.6,42.812 h -0.57 l -30.83,-42.812" /><path
         id="path112"
         style="fill:#1f54a9;fill-opacity:1;fill-rule:nonzero;stroke:none"
         d="m 1411.75,538.848 h 19.54 l -15.88,-40.274 -0.05,-0.273 0.33,0.273 h -0.14 l 0.24,-0.273 c 5.54,5.207 12.73,9.152 21.15,9.152 18.26,0 24.99,-12.258 22.22,-29.433 -3.63,-22.668 -20.15,-46.465 -45.68,-46.465 -10.41,0 -14.82,1.824 -19.18,11.972 h -0.29 l -3.93,-10.285 h -17.97 z m 27.34,-61.532 c 1.42,8.875 -2.08,15.489 -10.92,15.489 -12.98,0 -22.97,-16.895 -25,-29.571 -1.49,-9.289 0.54,-17.031 9.81,-17.031 15.98,0 24.28,19.707 26.11,31.113" /><path
         id="path114"
         style="fill:#1f54a9;fill-opacity:1;fill-rule:nonzero;stroke:none"
         d="m 1521.89,463.664 c -2.14,-13.379 4.34,-18.312 17.45,-18.312 7.85,0 15.73,1.972 23.37,5.214 l -4.82,-14.929 c -7.77,-2.258 -16.19,-4.082 -24.04,-4.082 -21.1,0 -33.74,10.136 -30.28,31.679 3.62,22.528 24.79,44.219 48.89,44.219 18.11,0 28.63,-9.152 25.66,-27.598 -0.89,-5.5 -2.46,-10.851 -4.46,-16.191 z m 37.03,12.949 c 0.55,1.688 0.94,3.242 1.22,4.93 1.24,7.746 -2.19,12.109 -10.18,12.109 -11.84,0 -18.1,-7.039 -23.42,-17.039 h 32.38" /><path
         id="path116"
         style="fill:#1f54a9;fill-opacity:1;fill-rule:nonzero;stroke:none"
         d="m 1633.63,505.762 h 13.83 l 5.68,14.922 21.59,6.621 -8.16,-21.543 h 17.11 l -5.21,-13.797 h -17.11 l -12.08,-31.692 c -0.7,-1.687 -1.53,-4.218 -1.99,-7.031 -0.7,-4.363 1.87,-7.039 6.14,-7.039 3.43,0 6.96,0.703 9.54,1.688 l -5.63,-14.649 c -3.39,-0.703 -7.26,-1.687 -10.54,-1.687 -12.98,0 -21.29,5.066 -19.05,19.011 0.91,5.625 2.93,11.125 5.14,16.895 l 9.36,24.504 h -13.84 l 5.22,13.797" /><path
         id="path118"
         style="fill:#1f54a9;fill-opacity:1;fill-rule:nonzero;stroke:none"
         d="m 1727.04,505.762 h 13.83 l 5.68,14.922 21.6,6.621 -8.17,-21.543 h 17.11 l -5.2,-13.797 h -17.12 l -12.08,-31.692 c -0.7,-1.687 -1.53,-4.218 -1.99,-7.031 -0.7,-4.363 1.87,-7.039 6.14,-7.039 3.43,0 6.97,0.703 9.55,1.688 l -5.63,-14.649 c -3.4,-0.703 -7.26,-1.687 -10.55,-1.687 -12.97,0 -21.28,5.066 -19.04,19.011 0.9,5.625 2.92,11.125 5.13,16.895 l 9.36,24.504 h -13.84 l 5.22,13.797" /><path
         id="path120"
         style="fill:#1f54a9;fill-opacity:1;fill-rule:nonzero;stroke:none"
         d="m 1825.95,463.664 c -2.15,-13.379 4.33,-18.312 17.46,-18.312 7.84,0 15.72,1.972 23.37,5.214 l -4.83,-14.929 c -7.77,-2.258 -16.2,-4.082 -24.04,-4.082 -21.11,0 -33.74,10.136 -30.28,31.679 3.62,22.528 24.79,44.219 48.89,44.219 18.11,0 28.62,-9.152 25.66,-27.598 -0.89,-5.5 -2.46,-10.851 -4.46,-16.191 z m 37.02,12.949 c 0.56,1.688 0.95,3.242 1.23,4.93 1.24,7.746 -2.2,12.109 -10.18,12.109 -11.84,0 -18.11,-7.039 -23.42,-17.039 h 32.37" /><path
         id="path122"
         style="fill:#1f54a9;fill-opacity:1;fill-rule:nonzero;stroke:none"
         d="m 1941.68,496.047 c 1.07,3.094 2.16,6.336 3.28,9.715 h 18.25 l -4.76,-13.66 h 0.28 c 4.69,7.89 15.31,15.351 24.15,15.351 2.42,0 4.97,-0.148 7.16,-0.707 l -6.96,-18.445 c -2.03,0.703 -4.67,1.125 -7.09,1.125 -13.55,0 -22.03,-11.965 -26.33,-23.653 l -12.08,-32.531 h -19.1 l 23.2,62.805" /><path
         id="path124"
         style="fill:#1f54a9;fill-opacity:1;fill-rule:nonzero;stroke:none"
         d="m 2107.54,505.762 h 19.11 l -3.47,-54.492 h 0.28 l 35.7,54.492 h 21.25 l -4.76,-54.492 h 0.29 l 36.99,54.492 h 19.54 l -52.43,-72.52 h -21.54 l 4.78,55.481 h -0.29 l -35.72,-55.481 h -21.68 l 1.95,72.52" /><path
         id="path126"
         style="fill:#1f54a9;fill-opacity:1;fill-rule:nonzero;stroke:none"
         d="m 2302.62,444.367 h -0.28 c -7.88,-8.164 -15.19,-12.812 -25.74,-12.812 -13.26,0 -21.5,7.324 -19.35,20.703 3.84,23.933 31.23,25.762 49.21,25.762 h 6.7 c 0.89,1.972 1.23,4.082 1.57,6.199 1.17,7.324 -6.48,9.433 -13.18,9.433 -8.41,0 -16.88,-2.109 -25.01,-5.632 l 5.14,15.066 c 8.57,2.812 17.09,4.367 25.66,4.367 14.68,0 27.66,-5.351 24.92,-22.394 -1.56,-9.715 -13.4,-38.153 -17.31,-51.817 h -16.12 z m -18.53,0.985 c 14.27,0 20.25,9.718 25.12,21.406 h -6.71 c -9.26,0 -24.92,-1.551 -26.89,-13.797 -0.81,-5.07 3.63,-7.609 8.48,-7.609" /><path
         id="path128"
         style="fill:#1f54a9;fill-opacity:1;fill-rule:nonzero;stroke:none"
         d="m 2409.03,505.762 -1.81,-53.934 h 0.28 l 37.9,53.934 h 20.97 l -63.19,-83.504 c -7.43,-9.856 -16.38,-20.274 -32.5,-20.274 -4.84,0 -9.44,0.704 -13.94,1.973 l 6.58,14.363 c 2.15,-0.847 4.3,-1.687 8.14,-1.687 5.71,0 10.44,2.812 18.79,13.094 l -0.76,76.035 h 19.54" /><path
         id="path130"
         style="fill:#1f54a9;fill-opacity:1;fill-rule:nonzero;stroke:none"
         d="m 2595.07,491.965 h -14.83 l 5.21,13.797 h 14.83 c 6.82,18.449 15.72,34.777 37.96,34.777 4.43,0 8.56,-0.84 11.55,-1.828 l -6.68,-14.082 c -1.58,0.851 -3.66,1.269 -5.65,1.269 -10.56,0 -14.99,-12.527 -18.07,-20.136 h 17.11 l -5.2,-13.797 h -17.12 l -21.98,-58.723 h -19.11 l 21.98,58.723" /><path
         id="path132"
         style="fill:#1f54a9;fill-opacity:1;fill-rule:nonzero;stroke:none"
         d="m 2746.47,475.625 c -4.09,-25.488 -24.91,-44.07 -50.86,-44.07 -20.82,0 -31.33,12.675 -28.06,33.086 3.9,24.226 25.7,42.812 50.38,42.812 19.82,0 31.76,-11.828 28.54,-31.828 z m -19.99,-0.137 c 1.52,9.434 -0.5,17.317 -11.76,17.317 -15.12,0 -25.33,-16.477 -27.42,-29.571 -1.55,-9.57 1.25,-17.031 12.23,-17.031 14.83,0 24.96,16.895 26.95,29.285" /><path
         id="path134"
         style="fill:#1f54a9;fill-opacity:1;fill-rule:nonzero;stroke:none"
         d="m 2807.94,496.047 c 1.07,3.094 2.16,6.336 3.27,9.715 h 18.26 l -4.76,-13.66 h 0.28 c 4.69,7.89 15.3,15.351 24.15,15.351 2.42,0 4.96,-0.148 7.16,-0.707 l -6.96,-18.445 c -2.03,0.703 -4.67,1.125 -7.09,1.125 -13.55,0 -22.04,-11.965 -26.33,-23.653 l -12.08,-32.531 h -19.11 l 23.21,62.805" /><path
         id="path136"
         style="fill:#1f54a9;fill-opacity:1;fill-rule:nonzero;stroke:none"
         d="m 2896.21,505.762 h 19.11 l -3.48,-54.492 h 0.29 l 35.71,54.492 h 21.25 l -4.77,-54.492 h 0.3 l 36.99,54.492 h 19.53 l -52.43,-72.52 h -21.54 l 4.78,55.481 h -0.29 l -35.72,-55.481 h -21.68 l 1.95,72.52" /><path
         id="path138"
         style="fill:#1f54a9;fill-opacity:1;fill-rule:nonzero;stroke:none"
         d="m 3091.29,444.367 h -0.28 c -7.87,-8.164 -15.18,-12.812 -25.74,-12.812 -13.26,0 -21.5,7.324 -19.35,20.703 3.85,23.933 31.24,25.762 49.21,25.762 h 6.71 c 0.87,1.972 1.21,4.082 1.56,6.199 1.17,7.324 -6.47,9.433 -13.18,9.433 -8.42,0 -16.88,-2.109 -25.01,-5.632 l 5.13,15.066 c 8.59,2.812 17.11,4.367 25.67,4.367 14.68,0 27.66,-5.351 24.92,-22.394 -1.55,-9.715 -13.4,-38.153 -17.3,-51.817 h -16.12 z m -18.53,0.985 c 14.27,0 20.25,9.718 25.12,21.406 h -6.7 c -9.27,0 -24.92,-1.551 -26.89,-13.797 -0.81,-5.07 3.63,-7.609 8.47,-7.609" /><path
         id="path140"
         style="fill:#1f54a9;fill-opacity:1;fill-rule:nonzero;stroke:none"
         d="m 3183.31,496.047 c 1.07,3.094 2.16,6.336 3.27,9.715 h 18.26 l -4.76,-13.66 h 0.28 c 4.69,7.89 15.3,15.351 24.14,15.351 2.43,0 4.97,-0.148 7.16,-0.707 l -6.95,-18.445 c -2.03,0.703 -4.67,1.125 -7.09,1.125 -13.56,0 -22.03,-11.965 -26.34,-23.653 l -12.07,-32.531 h -19.11 l 23.21,62.805" /><path
         id="path142"
         style="fill:#1f54a9;fill-opacity:1;fill-rule:nonzero;stroke:none"
         d="m 3361.33,538.848 -34.21,-89.551 c -2.14,-6.199 -4.28,-12.391 -5.3,-16.055 H 3304 l 3.58,10.703 h -0.29 c -6.98,-7.89 -14.83,-12.39 -25.95,-12.39 -17.41,0 -22.94,14.363 -20.4,30.136 3.49,21.68 19.32,45.762 44.28,45.762 9.42,0 16.13,-3.527 21.03,-10.285 l 15.97,41.68 z m -80.16,-75.469 c -1.17,-7.324 -0.48,-17.176 8.94,-17.176 13.97,0 24.82,16.043 26.97,29.422 1.36,8.449 -1.37,17.18 -11.07,17.18 -13.7,0 -23.09,-18.586 -24.84,-29.426" /></g></g></svg>